<?xml version="1.0" standalone="no"?><!DOCTYPE svg PUBLIC "-//W3C//DTD SVG 1.1//EN" "http://www.w3.org/Graphics/SVG/1.1/DTD/svg11.dtd"><svg t="1554795124024" class="icon" style="" viewBox="0 0 1024 1024" version="1.1" xmlns="http://www.w3.org/2000/svg" p-id="2810" xmlns:xlink="http://www.w3.org/1999/xlink" width="58" height="58"><defs><style type="text/css"></style></defs><path d="M512 89.043478L145.719652 723.478261h732.560696L512 89.043478z m443.414261 678.956522H68.563478L512 0l443.414261 768z" fill="#FFFFFF" p-id="2811"></path><path d="M876.477217 289.391304H143.894261L510.21913 923.826087 876.477217 289.391304zM66.782609 244.869565h886.806261L510.21913 1012.869565 66.782609 244.869565z" fill="#FFFFFF" p-id="2812"></path><path d="M727.663304 486.088348l-11.664695 18.966261-308.357566-189.751652 11.664696-18.966261zM355.795478 679.312696l-22.260869-0.734609 11.887304-356.173913 22.26087 0.756869zM386.025739 794.468174l-11.798261-18.877217 375.051131-234.406957 11.798261 18.877217z" fill="#FFFFFF" fill-opacity=".45" p-id="2813"></path><path d="M389.565217 256m-77.913043 0a77.913043 77.913043 0 1 0 155.826087 0 77.913043 77.913043 0 1 0-155.826087 0Z" fill="#FFFFFF" p-id="2814"></path><path d="M768 500.869565m-77.913043 0a77.913043 77.913043 0 1 0 155.826086 0 77.913043 77.913043 0 1 0-155.826086 0Z" fill="#FFFFFF" p-id="2815"></path><path d="M367.304348 745.73913m-77.913044 0a77.913043 77.913043 0 1 0 155.826087 0 77.913043 77.913043 0 1 0-155.826087 0Z" fill="#FFFFFF" p-id="2816"></path></svg>