<?xml version="1.0" standalone="no"?><!DOCTYPE svg PUBLIC "-//W3C//DTD SVG 1.1//EN" "http://www.w3.org/Graphics/SVG/1.1/DTD/svg11.dtd"><svg t="1554795097139" class="icon" style="" viewBox="0 0 1024 1024" version="1.1" xmlns="http://www.w3.org/2000/svg" p-id="2326" xmlns:xlink="http://www.w3.org/1999/xlink" width="58" height="58"><defs><style type="text/css"></style></defs><path d="M512 113.129739L214.216348 236.477217 90.89113 534.26087l123.325218 297.783652L512 955.369739l297.783652-123.325217L933.10887 534.26087l-123.325218-297.783653L512 113.152z m331.865043 89.266087L981.303652 534.26087l-137.438609 331.865043L512 1003.564522 180.134957 866.125913 42.696348 534.26087 180.134957 202.395826 512 64.957217l331.865043 137.438609z" fill="#485BAA" p-id="2327"></path><path d="M512 89.043478m-89.043478 0a89.043478 89.043478 0 1 0 178.086956 0 89.043478 89.043478 0 1 0-178.086956 0Z" fill="#485BAA" p-id="2328"></path><path d="M512 89.043478m-66.782609 0a66.782609 66.782609 0 1 0 133.565218 0 66.782609 66.782609 0 1 0-133.565218 0Z" fill="#0AA2F4" p-id="2329"></path><path d="M211.478261 834.782609m-100.173913 0a100.173913 100.173913 0 1 0 200.347826 0 100.173913 100.173913 0 1 0-200.347826 0Z" fill="#485BAA" p-id="2330"></path><path d="M211.478261 834.782609m-77.913044 0a77.913043 77.913043 0 1 0 155.826087 0 77.913043 77.913043 0 1 0-155.826087 0Z" fill="#0AA2F4" p-id="2331"></path><path d="M834.782609 857.043478m-100.173913 0a100.173913 100.173913 0 1 0 200.347826 0 100.173913 100.173913 0 1 0-200.347826 0Z" fill="#485BAA" p-id="2332"></path><path d="M834.782609 857.043478m-77.913044 0a77.913043 77.913043 0 1 0 155.826087 0 77.913043 77.913043 0 1 0-155.826087 0Z" fill="#0AA2F4" p-id="2333"></path><path d="M523.130435 467.478261h-22.26087V166.956522h22.26087z" fill="#485BAA" fill-opacity=".45" p-id="2334"></path><path d="M578.782609 494.34713l-15.738435-15.738434L823.652174 218.000696l15.738435 15.738434zM460.933565 490.406957l-16.406261 15.048347L184.631652 221.94087l16.406261-15.026087z" fill="#485BAA" fill-opacity=".24" p-id="2335"></path><path d="M278.77287 761.477565l-16.250435-15.226435 182.182956-194.337391 16.250435 15.226435zM783.738435 768.445217l-16.161392 15.293218-215.663304-227.639652 16.161391-15.315479z" fill="#485BAA" fill-opacity=".45" p-id="2336"></path><path d="M512 534.26087m-89.043478 0a89.043478 89.043478 0 1 0 178.086956 0 89.043478 89.043478 0 1 0-178.086956 0Z" fill="#485BAA" p-id="2337"></path><path d="M512 534.26087m-66.782609 0a66.782609 66.782609 0 1 0 133.565218 0 66.782609 66.782609 0 1 0-133.565218 0Z" fill="#0AA2F4" p-id="2338"></path></svg>