<?xml version="1.0" standalone="no"?><!DOCTYPE svg PUBLIC "-//W3C//DTD SVG 1.1//EN" "http://www.w3.org/Graphics/SVG/1.1/DTD/svg11.dtd"><svg t="1554795128599" class="icon" style="" viewBox="0 0 1166 1024" version="1.1" xmlns="http://www.w3.org/2000/svg" p-id="2927" xmlns:xlink="http://www.w3.org/1999/xlink" width="66.04296875" height="58"><defs><style type="text/css"></style></defs><path d="M946.545778 157.297778h-284.444445v398.222222h284.444445v-398.222222z m56.888889-56.888889v512h-398.222223v-512h398.222223z" fill="#FFFFFF" p-id="2928"></path><path d="M142.222222 625.777778v284.444444h910.222222V625.777778H142.222222z m-56.888889-56.888889h1024v398.222222H85.333333V568.888889z" fill="#FFFFFF" p-id="2929"></path><path d="M1027.413333 872.106667l-7.964444 27.306666-852.195556-249.742222 7.964445-27.306667zM672.398222 588.600889l-23.665778-15.758222L920.462222 165.176889l23.665778 15.758222z" fill="#FFFFFF" fill-opacity=".45" p-id="2930"></path><path d="M967.111111 113.777778m-113.777778 0a113.777778 113.777778 0 1 0 227.555556 0 113.777778 113.777778 0 1 0-227.555556 0Z" fill="#FFFFFF" p-id="2931"></path><path d="M113.777778 625.777778m-113.777778 0a113.777778 113.777778 0 1 0 227.555556 0 113.777778 113.777778 0 1 0-227.555556 0Z" fill="#FFFFFF" p-id="2932"></path><path d="M1052.444444 910.222222m-113.777777 0a113.777778 113.777778 0 1 0 227.555555 0 113.777778 113.777778 0 1 0-227.555555 0Z" fill="#FFFFFF" p-id="2933"></path></svg>