<?xml version="1.0" standalone="no"?><!DOCTYPE svg PUBLIC "-//W3C//DTD SVG 1.1//EN" "http://www.w3.org/Graphics/SVG/1.1/DTD/svg11.dtd"><svg t="1554795107434" class="icon" style="" viewBox="0 0 1024 1024" version="1.1" xmlns="http://www.w3.org/2000/svg" p-id="2572" xmlns:xlink="http://www.w3.org/1999/xlink" width="58" height="58"><defs><style type="text/css"></style></defs><path d="M314.010791 438.414884l-12.240372 20.48-222.850977-133.310512 12.240372-20.432372zM711.108465 457.061209l-13.19293-19.813209 234.138791-156.076651 13.19293 19.813209zM535.813953 525.240558h-23.813953v-193.178791h23.813953zM351.517767 625.592558l-12.383255-20.337116 141.121488-85.801675 12.383256 20.337117zM708.72707 608.303628l-12.716651 20.146605-140.907163-88.921303 12.716651-20.146604zM512 721.229395h23.813953V988.27907h-23.813953z" fill="#FFFFFF" p-id="2573"></path><path d="M523.906977 976.372093C254.285395 976.372093 35.72093 757.807628 35.72093 488.186047S254.285395 0 523.906977 0 1012.093023 218.564465 1012.093023 488.186047 793.528558 976.372093 523.906977 976.372093z m0-47.627907C767.21414 928.744186 964.465116 731.493209 964.465116 488.186047S767.21414 47.627907 523.906977 47.627907 83.348837 244.878884 83.348837 488.186047 280.599814 928.744186 523.906977 928.744186z" fill="#FFFFFF" p-id="2574"></path><path d="M523.906977 738.232558a226.232558 226.232558 0 1 1 0-452.465116 226.232558 226.232558 0 0 1 0 452.465116z m0-47.627907a178.604651 178.604651 0 1 0 0-357.209302 178.604651 178.604651 0 0 0 0 357.209302z" fill="#FFFFFF" p-id="2575"></path><path d="M95.255814 297.674419m-83.348837 0a83.348837 83.348837 0 1 0 166.697674 0 83.348837 83.348837 0 1 0-166.697674 0Z" fill="#FFFFFF" p-id="2576"></path><path d="M928.744186 297.674419m-83.348837 0a83.348837 83.348837 0 1 0 166.697674 0 83.348837 83.348837 0 1 0-166.697674 0Z" fill="#FFFFFF" p-id="2577"></path><path d="M523.906977 940.651163m-83.348837 0a83.348837 83.348837 0 1 0 166.697674 0 83.348837 83.348837 0 1 0-166.697674 0Z" fill="#FFFFFF" p-id="2578"></path><path d="M523.906977 512m-83.348837 0a83.348837 83.348837 0 1 0 166.697674 0 83.348837 83.348837 0 1 0-166.697674 0Z" fill="#FFFFFF" p-id="2579"></path></svg>