<?xml version="1.0" standalone="no"?><!DOCTYPE svg PUBLIC "-//W3C//DTD SVG 1.1//EN" "http://www.w3.org/Graphics/SVG/1.1/DTD/svg11.dtd"><svg t="1554795029682" class="icon" style="" viewBox="0 0 1145 1024" version="1.1" xmlns="http://www.w3.org/2000/svg" p-id="1961" xmlns:xlink="http://www.w3.org/1999/xlink" width="64.853515625" height="58"><defs><style type="text/css"></style></defs><path d="M146.285714 121.904762v804.571428h853.333334V121.904762H146.285714zM97.52381 73.142857h950.857142v902.095238H97.52381V73.142857z" fill="#485BAA" p-id="1962"></path><path d="M633.904762 504.856381L616.667429 487.619048 914.285714 190.000762l17.237334 17.237333zM585.142857 884.077714h-24.380952V597.333333h24.380952z" fill="#485BAA" fill-opacity=".45" p-id="1963"></path><path d="M171.154286 908.604952l-17.456762-17.066666 314.514286-321.999238 17.43238 17.042285z" fill="#485BAA" fill-opacity=".25" p-id="1964"></path><path d="M968.094476 890.733714l-16.627809 17.846857L603.672381 584.655238l16.603429-17.846857z" fill="#485BAA" fill-opacity=".251" p-id="1965"></path><path d="M1024 121.904762m-121.904762 0a121.904762 121.904762 0 1 0 243.809524 0 121.904762 121.904762 0 1 0-243.809524 0Z" fill="#485BAA" p-id="1966"></path><path d="M1024 121.904762m-97.52381 0a97.52381 97.52381 0 1 0 195.04762 0 97.52381 97.52381 0 1 0-195.04762 0Z" fill="#0AA2F4" p-id="1967"></path><path d="M560.761905 512m-121.904762 0a121.904762 121.904762 0 1 0 243.809524 0 121.904762 121.904762 0 1 0-243.809524 0Z" fill="#485BAA" p-id="1968"></path><path d="M560.761905 512m-97.52381 0a97.52381 97.52381 0 1 0 195.047619 0 97.52381 97.52381 0 1 0-195.047619 0Z" fill="#0AA2F4" p-id="1969"></path><path d="M572.952381 938.666667m-85.333333 0a85.333333 85.333333 0 1 0 170.666666 0 85.333333 85.333333 0 1 0-170.666666 0Z" fill="#485BAA" p-id="1970"></path><path d="M572.952381 938.666667m-64 0a64 64 0 1 0 128 0 64 64 0 1 0-128 0Z" fill="#0AA2F4" p-id="1971"></path><path d="M121.904762 121.904762m-121.904762 0a121.904762 121.904762 0 1 0 243.809524 0 121.904762 121.904762 0 1 0-243.809524 0Z" fill="#485BAA" p-id="1972"></path><path d="M121.904762 121.904762m-97.52381 0a97.52381 97.52381 0 1 0 195.047619 0 97.52381 97.52381 0 1 0-195.047619 0Z" fill="#0AA2F4" p-id="1973"></path><path d="M134.095238 938.666667m-85.333333 0a85.333333 85.333333 0 1 0 170.666666 0 85.333333 85.333333 0 1 0-170.666666 0Z" fill="#485BAA" p-id="1974"></path><path d="M134.095238 938.666667m-60.952381 0a60.952381 60.952381 0 1 0 121.904762 0 60.952381 60.952381 0 1 0-121.904762 0Z" fill="#0AA2F4" p-id="1975"></path><path d="M1011.809524 938.666667m-85.333334 0a85.333333 85.333333 0 1 0 170.666667 0 85.333333 85.333333 0 1 0-170.666667 0Z" fill="#485BAA" p-id="1976"></path><path d="M1011.809524 938.666667m-60.952381 0a60.952381 60.952381 0 1 0 121.904762 0 60.952381 60.952381 0 1 0-121.904762 0Z" fill="#0AA2F4" p-id="1977"></path><path d="M177.810286 219.428571L195.047619 202.191238 468.284952 475.428571l-17.237333 17.237334z" fill="#485BAA" fill-opacity=".454" p-id="1978"></path></svg>