<?xml version="1.0" encoding="UTF-8"?>
<svg width="96px" height="66px" viewBox="0 0 96 66" version="1.1" xmlns="http://www.w3.org/2000/svg" xmlns:xlink="http://www.w3.org/1999/xlink">
    <!-- Generator: Sketch 52.6 (67491) - http://www.bohemiancoding.com/sketch -->
    <title>高级备份</title>
    <desc>Created with Sketch.</desc>
    <g id="Page-1" stroke="none" stroke-width="1" fill="none" fill-rule="evenodd">
        <g id="网页-copy-2" transform="translate(-912.000000, -2078.000000)" fill-rule="nonzero" stroke="#FFFFFF">
            <g id="高级备份" transform="translate(913.000000, 2076.000000)">
                <path d="M89,48.5 C89,42.4145196 81.9322353,37.0153122 71.0231112,33.6436923 M48.1275275,30.0988208 C46.7647918,30.0334842 45.3816863,30 43.9817272,30 C42.4739408,30 40.9857041,30.0388408 39.5214102,30.1144839 M17.4722512,33.8019749 C6.85030006,37.1829006 0,42.5088716 0,48.5 C0,58.7172679 19.9233286,67 44.5,67 C52.2294436,67 59.4986143,66.1807358 65.8324897,64.7396888" id="形状" stroke-width="2" stroke-linecap="round"></path>
                <path d="M18,22.0381855 L18,43.7207927 C18,45.8548243 19.1334984,47.8282558 20.9768446,48.9035073 L30.9768446,54.7366577 C33.8391789,56.4063004 37.513072,55.4394328 39.1827147,52.5770985 C39.7179644,51.6594988 40,50.6162431 40,49.5539431 L40,27.4147521 C40,25.206114 38.7865962,23.176052 36.841301,22.130151 L26.841301,16.7535844 C23.9226964,15.1843772 20.2846061,16.2782799 18.7153989,19.1968845 C18.2457947,20.0703122 18,21.0465182 18,22.0381855 Z" id="路径-5" stroke-width="3"></path>
                <path d="M48,10.0381855 L48,31.7207927 C48,33.8548243 49.1334984,35.8282558 50.9768446,36.9035073 L60.9768446,42.7366577 C63.8391789,44.4063004 67.513072,43.4394328 69.1827147,40.5770985 C69.7179644,39.6594988 70,38.6162431 70,37.5539431 L70,15.4147521 C70,13.206114 68.7865962,11.176052 66.841301,10.130151 L56.841301,4.75358439 C53.9226964,3.18437718 50.2846061,4.2782799 48.7153989,7.19688449 C48.2457947,8.07031216 48,9.04651819 48,10.0381855 Z" id="路径-5-copy" stroke-width="3"></path>
                <polyline id="路径-2" stroke-width="2" stroke-linecap="round" stroke-linejoin="round" points="85 47 89.0632154 52.5361328 93.3100968 47"></polyline>
            </g>
        </g>
    </g>
</svg>