<?xml version="1.0" encoding="UTF-8"?>
<svg width="73px" height="67px" viewBox="0 0 73 67" version="1.1" xmlns="http://www.w3.org/2000/svg" xmlns:xlink="http://www.w3.org/1999/xlink">
    <!-- Generator: Sketch 52.6 (67491) - http://www.bohemiancoding.com/sketch -->
    <title>高可用</title>
    <desc>Created with Sketch.</desc>
    <g id="Page-1" stroke="none" stroke-width="1" fill="none" fill-rule="evenodd">
        <g id="网页-copy-2" transform="translate(-591.000000, -2134.000000)" fill="#FFFFFF">
            <g id="高可用" transform="translate(591.000000, 2134.000000)">
                <path d="M61.0414388,45.1632125 C61.9968385,45.4058406 62.9973258,45.5347202 64.0286069,45.5347202 C64.5266888,45.5347202 65.0178002,45.5044577 65.5,45.446044 C60.6739435,58.0484505 48.4352456,67 34.0996625,67 C31.0807302,67 28.1548849,66.6030683 25.3713614,65.8583814 C26.1719983,64.6631876 26.7500204,63.3343636 27.0778103,61.9349857 C29.3277818,62.4851655 31.6793991,62.777322 34.0996625,62.777322 C46.1591568,62.777322 56.5211138,55.5288313 61.0414388,45.1632125 Z M61.0414388,21.8367875 C61.9968385,21.5941594 62.9973258,21.4652798 64.0286069,21.4652798 C64.5266888,21.4652798 65.0178002,21.4951904 65.5,21.553956 C60.6739435,8.95119761 48.4352456,0 34.0996625,0 C31.0807302,0 28.1548849,0.396931731 25.3713614,1.1412667 C26.1719983,2.33646051 26.7500204,3.66563638 27.0778103,5.0649263 C29.3277818,4.51474655 31.6793991,4.22267799 34.0996625,4.22267799 C46.1591568,4.22267799 56.5211138,11.4711687 61.0414388,21.8367875 Z M9.10353805,18.1278686 C7.86993604,17.3866127 6.77839104,16.4319356 5.88052007,15.3089672 C2.47626908,20.5473751 0.5,26.7934197 0.5,33.5 C0.5,40.2064924 2.47662202,46.4525369 5.88052007,51.6910328 C6.77839104,50.5679764 7.86993604,49.6133873 9.10353805,48.8717795 C6.33377903,44.4040982 4.73524046,39.1381548 4.73524046,33.5 C4.73524046,27.8618452 6.33377903,22.5955499 9.10353805,18.1278686 Z" id="Fill-1"></path>
                <path d="M16.2895401,15.6240845 C20.5915458,15.6240845 24.0790801,12.1264755 24.0790801,7.81204225 C24.0790801,3.49760899 20.5915458,0 16.2895401,0 C11.9875343,0 8.5,3.49760899 8.5,7.81204225 C8.5,12.1264755 11.9875343,15.6240845 16.2895401,15.6240845 Z M64.7104599,41.3120422 C69.0124657,41.3120422 72.5,37.8144333 72.5,33.5 C72.5,29.1855667 69.0124657,25.6879578 64.7104599,25.6879578 C60.4084542,25.6879578 56.9209199,29.1855667 56.9209199,33.5 C56.9209199,37.8144333 60.4084542,41.3120422 64.7104599,41.3120422 Z M16.2895401,67 C20.5915458,67 24.0790801,63.502391 24.0790801,59.1879578 C24.0790801,54.8735245 20.5915458,51.3759155 16.2895401,51.3759155 C11.9875343,51.3759155 8.5,54.8735245 8.5,59.1879578 C8.5,63.502391 11.9875343,67 16.2895401,67 Z M34.9562433,17.8759155 C43.7538507,17.8759155 50.885761,25.0285162 50.885761,33.8518898 C50.885761,42.6749116 43.7538507,49.8274243 34.9562433,49.8274243 C26.1582849,49.8274243 19.0262869,42.6749116 19.0262869,33.8518898 C19.0262869,25.0285162 26.1582849,17.8759155 34.9562433,17.8759155 Z M33.0716062,27.2505149 L28.2147894,27.2505149 C27.542998,27.2505149 27,27.7536076 27,28.375786 L27,41.8747561 C27,42.4970429 27.542998,43 28.2147894,43 L42.7852399,43 C43.457002,43 44,42.4970429 44,41.8747561 L44,28.375786 C44,27.7536076 43.457002,27.2505149 42.7852399,27.2505149 L37.928423,27.2505149 C37.928423,26.0081637 36.8423101,25 35.5011557,25 C34.1599721,25 33.0716062,26.0081637 33.0716062,27.2505149 Z M29,41 L29,29 L42,29 L42,41 L29,41 Z M35.4999457,28 C35.2219876,28 34.9981058,27.7760485 35.0000121,27.4999517 C35.0000121,27.2239757 35.2239663,27 35.4999457,27 C35.7760458,27 36,27.2239757 36,27.4999517 C36,27.7760485 35.7760458,28 35.4999457,28 Z M32.2503049,31 C31.5613423,31 31,31.4469707 31,31.999988 C31,32.5530052 31.558873,33 32.2503049,33 L39.7496951,33 C40.441127,33 41,32.5530052 41,31.999988 C41,31.4469707 40.441127,31 39.7496951,31 L32.2503049,31 Z M32.1670414,34 C31.52396,34 31,34.4470696 31,35.0000602 C31,35.5529545 31.5216552,36 32.1670414,36 L36.8329586,36 C37.4783448,36 38,35.5529545 38,35.0000602 C38,34.4470696 37.4783448,34 36.8329586,34 L32.1670414,34 Z M32.2500075,38 C31.5612088,38 31,38.4470455 31,38.9999398 C31,39.5529304 31.5587401,40 32.2500075,40 L34.7499925,40 C35.4412599,40 36,39.5529304 36,38.9999398 C36,38.4470455 35.4412599,38 34.7499925,38 L32.2500075,38 Z" id="Fill-2"></path>
            </g>
        </g>
    </g>
</svg>