<?xml version="1.0" encoding="UTF-8"?>
<svg width="69px" height="66px" viewBox="0 0 69 66" version="1.1" xmlns="http://www.w3.org/2000/svg" xmlns:xlink="http://www.w3.org/1999/xlink">
    <!-- Generator: Sketch 52.6 (67491) - http://www.bohemiancoding.com/sketch -->
    <title>医疗行业</title>
    <desc>Created with Sketch.</desc>
    <defs>
        <polygon id="path-1" points="2.19183214e-16 0 69 0 69 66 2.19183214e-16 66"></polygon>
    </defs>
    <g id="Page-1" stroke="none" stroke-width="1" fill="none" fill-rule="evenodd">
        <g id="网页-copy-2" transform="translate(-1592.000000, -2133.000000)">
            <g id="医疗行业" transform="translate(1592.000000, 2133.000000)">
                <mask id="mask-2" fill="white">
                    <use xlink:href="#path-1"></use>
                </mask>
                <g id="Clip-2"></g>
                <path d="M64.2424153,11.7864911 L51.9657746,11.7864911 L51.9657746,6.2033009 C51.9657746,2.78410609 49.0814299,0 45.5415041,0 L24.3902529,0 C20.8502309,0 17.9662714,2.78410609 17.9662714,6.2033009 L17.9662714,11.7913566 L4.75758468,11.7864911 C1.21765895,11.7864911 0,13.0759397 0,16.5 L0,61.2865865 C0,64.7057813 1.21765895,66 4.75758468,66 L64.2424153,66 C67.7921632,66 69,64.7057813 69,61.2865865 L69,16.4951345 C69,13.0759397 67.7872521,11.7864911 64.2424153,11.7864911 Z M22.1863335,6.2033009 C22.1863335,5.03091013 23.1726903,4.07355467 24.3902529,4.07355467 L45.5415041,4.07355467 C46.759452,4.07355467 47.7502383,5.03091013 47.7502383,6.2033009 L47.7502383,11.7913566 L22.1863335,11.7913566 L22.1863335,6.2033009 Z M64.2424153,58.9272085 C64.2424153,60.0995993 63.0789708,61.2865865 61.8609267,61.2865865 L7.13416222,61.2865865 C5.85448884,61.207594 4.83510271,60.1953826 4.75758468,58.9272085 L4.75758468,18.8592826 C4.75758468,17.6868918 5.92141435,16.5 7.1390733,16.5 L61.8609267,16.5 C63.0789708,16.5 64.2375042,17.6820263 64.2375042,18.8592826 L64.2375042,58.9272085 L64.2424153,58.9272085 Z M40.9712146,24.7649304 L28.9609277,24.7649304 L28.9609277,33.5373974 L19.77066,33.5373974 L19.77066,45.1431979 L28.9560166,45.1431979 L28.9560166,53.9156649 L40.9712146,53.9156649 L40.9712146,45.1431979 L49.9638835,45.1431979 L49.9638835,33.5373974 L40.9712146,33.5373974 L40.9712146,24.7596833 L40.9712146,24.7649304 Z M45.7487325,37.6109521 L45.7487325,41.0692616 L36.755582,41.0692616 L36.755582,49.8421103 L33.1760788,49.8421103 L33.1760788,41.0692616 L23.9912036,41.0692616 L23.9912036,37.6012211 L33.1809898,37.6012211 L33.1809898,28.838485 L36.7654042,28.838485 L36.7654042,37.6109521 L45.7536435,37.6109521 L45.7487325,37.6109521 Z" id="Fill-1" fill="#FFFFFF" mask="url(#mask-2)"></path>
            </g>
        </g>
    </g>
</svg>