<?xml version="1.0" encoding="UTF-8"?>
<svg width="78px" height="75px" viewBox="0 0 78 75" version="1.1" xmlns="http://www.w3.org/2000/svg" xmlns:xlink="http://www.w3.org/1999/xlink">
    <!-- Generator: Sketch 52.6 (67491) - http://www.bohemiancoding.com/sketch -->
    <title>两地三中心</title>
    <desc>Created with Sketch.</desc>
    <g id="Page-1" stroke="none" stroke-width="1" fill="none" fill-rule="evenodd">
        <g id="网页-copy-2" transform="translate(-256.000000, -2119.000000)" fill="#FFFFFF" fill-rule="nonzero">
            <g id="两地三中心" transform="translate(256.000000, 2119.000000)">
                <path d="M39.3330556,20.1655372 L39.3330556,33.0983291 L51.6992319,25.9587139 L51.6992319,12.436677 L39.3330556,20.1655372 Z M50.6254583,10.0670649 L38.473547,3.05115567 L25.6112802,10.4771889 L37.9711435,17.8931069 L38.1037913,17.8931069 L50.6254583,10.0670649 Z M36.7545298,20.1701906 L25.2478621,13.26619 L25.2478621,25.9587139 L36.7545298,32.6020916 L36.7545298,20.1701906 Z M54.2777578,9.19829582 L54.2777578,27.4474265 L38.473547,36.5719919 L22.6693362,27.4474265 L22.6693362,9.19829582 L38.473547,0.0737304687 L54.2777578,9.19829582 Z" id="合并形状"></path>
                <path d="M16.9858315,57.9839165 L16.9858315,70.9167084 L29.3520078,63.7770932 L29.3520078,50.2550563 L16.9858315,57.9839165 Z M28.2782342,47.8854442 L16.1263229,40.869535 L3.26405608,48.2955681 L15.6239194,55.7114861 L15.7565671,55.7114861 L28.2782342,47.8854442 Z M14.4073056,57.9885699 L2.90063795,51.0845693 L2.90063795,63.7770932 L14.4073056,70.4204709 L14.4073056,57.9885699 Z M31.9305336,47.0166751 L31.9305336,65.2658058 L16.1263229,74.3903711 L0.32211209,65.2658058 L0.32211209,47.0166751 L16.1263229,37.8921098 L31.9305336,47.0166751 Z" id="合并形状-copy"></path>
                <path d="M62.7331858,57.9839165 L62.7331858,70.9167084 L75.099362,63.7770932 L75.099362,50.2550563 L62.7331858,57.9839165 Z M74.0255885,47.8854442 L61.8736771,40.869535 L49.0114103,48.2955681 L61.3712737,55.7114861 L61.5039214,55.7114861 L74.0255885,47.8854442 Z M60.1546599,57.9885699 L48.6479922,51.0845693 L48.6479922,63.7770932 L60.1546599,70.4204709 L60.1546599,57.9885699 Z M77.6778879,47.0166751 L77.6778879,65.2658058 L61.8736771,74.3903711 L46.0694664,65.2658058 L46.0694664,47.0166751 L61.8736771,37.8921098 L77.6778879,47.0166751 Z" id="合并形状-copy-2"></path>
            </g>
        </g>
    </g>
</svg>