<?xml version="1.0" encoding="UTF-8"?>
<svg width="55px" height="70px" viewBox="0 0 55 70" version="1.1" xmlns="http://www.w3.org/2000/svg" xmlns:xlink="http://www.w3.org/1999/xlink">
    <!-- Generator: Sketch 52.6 (67491) - http://www.bohemiancoding.com/sketch -->
    <title>勒索病毒方案</title>
    <desc>Created with Sketch.</desc>
    <defs>
        <polygon id="path-1" points="1.94055517e-16 0 55 0 55 70 1.94055517e-16 70"></polygon>
        <polygon id="path-3" points="0 0.0238985452 26.9748398 0.0238985452 26.9748398 27.0000242 0 27.0000242"></polygon>
    </defs>
    <g id="Page-1" stroke="none" stroke-width="1" fill="none" fill-rule="evenodd">
        <g id="网页-copy-2" transform="translate(-1266.000000, -2131.000000)">
            <g id="勒索病毒方案" transform="translate(1266.000000, 2131.000000)">
                <g id="44">
                    <mask id="mask-2" fill="white">
                        <use xlink:href="#path-1"></use>
                    </mask>
                    <g id="Clip-2"></g>
                    <path d="M27.4998721,70 L26.6269429,70 C24.4443213,69.1220002 22.2619555,68.2444289 19.6426562,67.3668577 C10.476089,64.2944154 0,60.7837019 0,47.617476 L0,35.3290785 C0,34.0125502 0.872844009,33.1346361 2.18270681,33.1346361 C4.36498734,33.1346361 5.67450912,31.379065 5.67450912,29.6239225 C5.67450912,27.4293944 3.92839483,26.1128661 2.18270681,26.1128661 C0.872844009,26.1128661 0,25.2348663 0,23.918338 L0,10.7523692 C0,9.43549807 0.872844009,8.55792682 2.18270681,8.55792682 C17.8969682,8.55792682 25.7537578,0.658242721 25.7537578,0.658242721 C26.6269429,-0.21941424 28.3730571,-0.21941424 29.2459012,0.658242721 C29.2459012,0.658242721 37.5396243,8.55792682 52.8173784,8.55792682 C54.126815,8.55792682 55,9.43549807 55,10.7523692 L55,23.4797238 C55,24.7962521 54.126815,25.673909 52.8173784,25.673909 C50.6350127,25.673909 49.3252351,27.4293944 49.3252351,29.1848798 C49.3252351,31.379065 51.0712642,32.6959362 52.8173784,32.6959362 C54.126815,32.6959362 55,33.5735931 55,34.8901214 L55,47.1784332 C55,60.3447448 44.52357,63.8558013 35.3570028,66.9279006 C33.174637,67.8054719 30.5553377,68.683386 28.3730571,69.5610429 C27.9364646,70 27.9364646,70 27.4998721,70 Z M4.36498734,37.0846496 L4.36498734,47.1784332 C4.36498734,57.2726455 12.222118,59.9057878 20.952519,62.9778871 L27.4998721,65.6112866 C29.6824937,64.7333725 31.8652005,64.2944154 33.6108885,63.4168442 C42.777882,60.3447448 50.1984201,57.7116025 50.1984201,47.617476 L50.1984201,37.0846496 C46.7062768,36.2066497 44.52357,33.1346361 44.52357,29.1848798 C44.52357,25.2348663 47.1428693,22.1628526 50.1984201,21.2851957 L50.1984201,12.9465545 C38.4125536,12.5079403 30.5553377,7.24131281 27.4998721,5.04687039 C24.4443213,7.24131281 16.5871906,12.5079403 4.36498734,12.9465545 L4.36498734,21.7241527 C7.85713068,22.6018097 10.0398375,25.673909 10.0398375,29.6239225 C10.0398375,33.5735931 7.85713068,36.2066497 4.36498734,37.0846496 Z" id="Fill-1" fill="#FFFFFF" mask="url(#mask-2)"></path>
                </g>
                <g id="fangbingdupeizhi" transform="translate(14.000000, 20.000000)">
                    <g id="分组">
                        <mask id="mask-4" fill="white">
                            <use xlink:href="#path-3"></use>
                        </mask>
                        <g id="Clip-2"></g>
                        <path d="M23.6702316,4.60306985 L22.3871691,3.32013971 C17.0183382,-1.32164338 8.97594485,-1.02811765 3.95973529,3.99275735 C-1.056375,9.0135 -1.34225735,17.0562574 3.3046875,22.4206875 L4.58761765,23.7037831 C9.95644853,28.3455662 17.9989743,28.0520404 23.0150515,23.0311654 C28.0311618,18.0102574 28.3170772,9.9675 23.6702316,4.60306985 Z M1.75056618,13.5119449 C1.74500735,8.92651103 4.41225,4.75841912 8.57825735,2.84254412 C12.7441324,0.926801471 17.6446985,1.61454044 21.1221728,4.60306985 L4.56955147,21.1557243 C2.74102941,19.0299375 1.74011029,16.3160404 1.75056618,13.5119449 Z M21.808886,21.8243382 C17.4747243,26.1665074 10.5263272,26.4343235 5.87071324,22.4387868 L22.4233676,5.88613235 C26.4189044,10.5417794 26.1510882,17.4901765 21.808886,21.8243382 Z" id="Fill-1" fill="#FFFFFF" mask="url(#mask-4)"></path>
                    </g>
                    <path d="M9.00000004,7 C8.99985356,7.71457996 9.38111459,8.37485697 9.99993593,8.73212864 C10.6187573,9.08929045 11.3812427,9.08929045 12.0000641,8.73212864 C12.618922,8.37485697 13.0001464,7.71457996 13,7 C13.0001464,6.28552989 12.618922,5.6252895 12.0000641,5.26798122 C11.3812427,4.91067293 10.6187573,4.91067293 9.99993593,5.26798122 C9.38111459,5.6252895 8.99985356,6.28552989 9.00000004,7 Z" id="Fill-3" fill="#FFFFFF"></path>
                    <path d="M5,14.0000412 C5,14.5523715 5.44773222,15 6.00005493,15 C6.55226778,15 7,14.5523715 7,14.0000412 C7,13.6426855 6.80945929,13.3126863 6.50004578,13.1340084 C6.19063227,12.9553305 5.80936773,12.9553305 5.49995422,13.1340084 C5.19054071,13.3126863 5,13.6426855 5,14.0000412 Z" id="Fill-4" fill="#FFFFFF"></path>
                    <path d="M16,7.00003662 C16,7.35724422 16.1907203,7.68742504 16.4999817,7.86610208 C16.8093895,8.04463264 17.1906105,8.04463264 17.5000183,7.86610208 C17.8094628,7.68742504 18,7.35724422 18,7.00003662 C18,6.64268254 17.8094628,6.31253834 17.5000183,6.13400778 C17.1906105,5.95533074 16.8093895,5.95533074 16.4999817,6.13400778 C16.1907203,6.31253834 16,6.64268254 16,7.00003662 Z" id="Fill-5" fill="#FFFFFF"></path>
                    <path d="M12,20 C11.9998536,20.71458 12.3810815,21.374857 12.9999451,21.7321286 C13.6187721,22.0892905 14.3812279,22.0892905 15.0000915,21.7321286 C15.6189185,21.374857 16.0001464,20.71458 16,20 C16.0001464,19.2855299 15.6189185,18.6252895 15.0000915,18.2679812 C14.3812279,17.9106729 13.6187721,17.9106729 12.9999451,18.2679812 C12.3810815,18.6252895 11.9998536,19.2855299 12,20 Z" id="Fill-6" fill="#FFFFFF"></path>
                    <path d="M18,17.0000732 C18,17.3572808 18.1906872,17.687425 18.4999542,17.8661021 C18.8093677,18.0446326 19.1906323,18.0446326 19.5000458,17.8661021 C19.8094593,17.687425 20,17.3572808 20,17.0000732 C20,16.6427192 19.8094593,16.3126848 19.5000458,16.1340078 C19.1906323,15.9553307 18.8093677,15.9553307 18.4999542,16.1340078 C18.1906872,16.3126848 18,16.6427192 18,17.0000732 Z" id="Fill-7" fill="#FFFFFF"></path>
                    <path d="M21,10.0000732 C21,10.3572808 21.1906837,10.687425 21.4999817,10.8661021 C21.8093895,11.0446326 22.1906105,11.0446326 22.5000183,10.8661021 C22.8094262,10.687425 23,10.3572808 23,10.0000732 C23,9.64271916 22.8094262,9.31268482 22.5000183,9.13400778 C22.1906105,8.95533074 21.8093895,8.95533074 21.4999817,9.13400778 C21.1906837,9.31268482 21,9.64271916 21,10.0000732 Z" id="Fill-8" fill="#FFFFFF"></path>
                </g>
            </g>
        </g>
    </g>
</svg>