<?xml version="1.0" encoding="UTF-8"?>
<svg width="77px" height="77px" viewBox="0 0 77 77" version="1.1" xmlns="http://www.w3.org/2000/svg" xmlns:xlink="http://www.w3.org/1999/xlink">
    <!-- Generator: Sketch 52.6 (67491) - http://www.bohemiancoding.com/sketch -->
    <title>bofang</title>
    <desc>Created with Sketch.</desc>
    <defs>
        <polygon id="path-1" points="0.00644351464 0.0730264993 76.9269735 0.0730264993 76.9269735 77 0.00644351464 77"></polygon>
    </defs>
    <g id="Page-1" stroke="none" stroke-width="1" fill="none" fill-rule="evenodd">
        <g id="网页-copy-2" transform="translate(-922.000000, -3509.000000)">
            <g id="分组-41" transform="translate(0.000000, 3475.000000)">
                <g id="bofang" transform="translate(922.000000, 34.000000)">
                    <path d="M61,12.9998248 C61,14.0716706 61.5718279,15.0619743 62.5003785,15.5981893 C63.4283468,16.1339369 64.572119,16.1339369 65.5000873,15.5981893 C66.428638,15.0619743 67,14.0716706 67,12.9998248 C67,11.9283294 66.428638,10.9375584 65.5000873,10.4018107 C64.572119,9.86606308 63.4283468,9.86606308 62.5003785,10.4018107 C61.5718279,10.9375584 61,11.9283294 61,12.9998248 Z" id="Fill-1" fill="#FFFFFF"></path>
                    <g id="分组">
                        <mask id="mask-2" fill="white">
                            <use xlink:href="#path-1"></use>
                        </mask>
                        <g id="Clip-3"></g>
                        <path d="M30.1984979,52.944212 C30.7057099,52.944212 31.1863961,52.806643 31.5904045,52.5574937 L51.4449135,40.9935328 C52.3816932,40.5467824 53.0344212,39.5932497 53.0344212,38.4849651 C53.0344212,37.4625941 52.4844672,36.5690934 51.6596974,36.0966764 L32.2519386,24.7903487 C31.7536402,24.2148354 31.0148912,23.8539986 30.1984979,23.8539986 C28.6866346,23.8539986 27.4667699,25.0911534 27.4667699,26.6118229 C27.4667699,26.6634784 27.4667699,26.7145969 27.4751464,26.7662524 L27.440781,26.7834351 L27.4839526,49.8944965 C27.4751464,49.988894 27.4667699,50.0832915 27.4667699,50.1864951 C27.4667699,51.7071646 28.6950112,52.944212 30.1984979,52.944212 Z" id="Fill-2" fill="#FFFFFF" mask="url(#mask-2)"></path>
                        <path d="M72.6396736,20.8726918 C72.1757406,19.9707071 71.2393905,19.3435384 70.1570948,19.3435384 C68.6276192,19.3435384 67.3905718,20.5806932 67.3905718,22.1013626 C67.3905718,22.6169512 67.5365174,23.1064435 67.7856667,23.5188285 L67.7772901,23.527205 C70.088364,28.0292887 71.3942497,33.1325523 71.3942497,38.5365132 C71.3942497,56.7159233 56.6513808,71.45847 38.4718633,71.45847 C20.2928828,71.45847 5.54163738,56.7159233 5.54163738,38.5365132 C5.54163738,20.3571032 20.2840767,5.62304045 38.4634868,5.62304045 C43.8330823,5.62304045 48.9018731,6.91174338 53.3779679,9.18834449 L53.3951506,9.15397908 C53.7903529,9.37756904 54.2542859,9.50633194 54.7443152,9.50633194 C56.2733612,9.50633194 57.510516,8.26917713 57.510516,6.74850767 C57.510516,5.62304045 56.8316918,4.65232497 55.8521702,4.22275732 C50.6289498,1.56813668 44.726583,0.0730264993 38.4634868,0.0730264993 C17.2170711,0.0730264993 0,17.2984742 0,38.5365132 C0,59.7745523 17.2170711,77 38.4634868,77 C59.7099024,77 76.9269735,59.7829289 76.9269735,38.5365132 C76.9269735,32.1702134 75.3807448,26.1650725 72.6396736,20.8726918 Z" id="Fill-4" fill="#FFFFFF" mask="url(#mask-2)"></path>
                    </g>
                </g>
            </g>
        </g>
    </g>
</svg>